<svg xmlns="http://www.w3.org/2000/svg" enable-background="new 0 0 512 512" viewBox="0 0 512 512" id="goodreview">
  <g fill="#f4f4f5" class="color000000 svgShape">
    <g fill="#f4f4f5" class="color000000 svgShape">
      <path d="M449.183,10.547H268.018c-14.912,0-27.025,12.146-27.025,27.057v116.4c0,14.912,12.114,27.025,27.025,27.025h21.97v32.144
			c0,5.024,2.989,9.507,7.631,11.414c1.526,0.636,3.148,0.922,4.737,0.922c3.211,0,6.359-1.24,8.712-3.625l40.888-40.856h97.228
			c14.912,0,27.057-12.114,27.057-27.025v-116.4C476.24,22.692,464.095,10.547,449.183,10.547z M466.702,154.003
			c0,9.634-7.853,17.487-17.519,17.487h-99.199c-1.272,0-2.48,0.509-3.37,1.399l-42.287,42.255
			c-1.208,1.208-2.544,0.827-3.052,0.636c-0.54-0.223-1.749-0.922-1.749-2.607v-36.913c0-2.607-2.13-4.769-4.769-4.769h-26.739
			c-9.634,0-17.487-7.853-17.487-17.487v-116.4c0-9.666,7.853-17.519,17.487-17.519h181.165c9.665,0,17.519,7.853,17.519,17.519
			V154.003z" fill="#f4f4f5" class="color000000 svgShape"></path>
      <path d="M455.924 91.972l-8.839 8.616 2.067 12.177c.604 3.434-.795 6.868-3.625 8.903-2.83 2.067-6.518 2.321-9.602.699l-10.937-5.755-10.937 5.755c-1.336.7-2.798 1.049-4.261 1.049-1.876 0-3.752-.604-5.341-1.749-2.83-2.035-4.229-5.469-3.625-8.903l2.099-12.177-8.903-8.616c-1.049-1.017-1.78-2.257-2.225-3.561-.445 1.303-1.208 2.544-2.257 3.561l-8.839 8.616 2.099 12.177c.572 3.434-.827 6.868-3.656 8.903-2.798 2.067-6.486 2.321-9.57.668l-10.937-5.723-10.937 5.755c-1.367.7-2.83 1.049-4.261 1.049-1.876 0-3.752-.604-5.341-1.749-2.83-2.035-4.229-5.469-3.656-8.903l2.099-12.177-8.871-8.616c-1.049-1.017-1.78-2.257-2.225-3.561-.477 1.303-1.208 2.544-2.257 3.561l-8.839 8.616 2.099 12.177c.572 3.434-.827 6.868-3.656 8.903-2.83 2.067-6.486 2.321-9.602.699l-10.937-5.755-10.937 5.755c-1.336.7-2.798 1.049-4.261 1.049-1.876 0-3.72-.604-5.31-1.749-2.83-2.035-4.229-5.469-3.656-8.903l2.099-12.177-8.871-8.616c-2.544-2.512-3.402-6.104-2.289-9.411 1.081-3.275 3.879-5.659 7.345-6.168l12.209-1.781 5.532-11.096c1.526-3.116 4.642-5.055 8.139-5.055 3.529 0 6.645 1.939 8.171 5.055l5.469 11.096 12.241 1.781c3.434.509 6.2 2.861 7.281 6.073 1.113-3.243 3.911-5.564 7.313-6.073l12.209-1.781 5.532-11.096c1.526-3.116 4.674-5.055 8.171-5.055 3.497 0 6.613 1.939 8.171 5.055l5.469 11.096 12.209 1.781c3.434.509 6.2 2.861 7.313 6.073 1.113-3.243 3.879-5.564 7.281-6.073l12.241-1.781 5.501-11.096c1.526-3.116 4.674-5.055 8.171-5.055 3.497 0 6.645 1.939 8.171 5.055l5.469 11.096 12.241 1.781c3.497.509 6.295 2.925 7.376 6.232C459.294 85.931 458.404 89.524 455.924 91.972zM358.919 283.566H252.344l4.229-26.644c9.665-67.086-33.448-95.161-72.301-80.058-5.246 2.003-8.457 7.345-7.949 13.481l4.928 41.301c.795 6.677-.445 13.258-3.593 19.172l-27.184 56.117c-3.974-4.324-9.665-7.058-15.961-7.058H57.475c-11.987 0-21.716 9.729-21.716 21.716V479.77c0 11.955 9.729 21.684 21.716 21.684h77.038c6.359 0 12.114-2.766 16.088-7.185 21.906 9.316 31.445 3.847 164.123 5.405 27.343 0 38.535-33.575 21.748-51.793 15.293-1.113 27.407-13.894 27.407-29.442-.159-.89 1.431-12.622-8.489-22.733 13.29-2.893 23.305-14.785 23.305-28.965-.191-.826 1.526-13.576-9.666-23.814 11.382-4.133 19.522-15.007 19.522-27.757v-1.971C388.551 296.856 375.261 283.566 358.919 283.566zM146.659 479.77c0 6.709-5.437 12.145-12.146 12.145H57.475c-6.709 0-12.177-5.437-12.177-12.145V321.592c0-6.709 5.469-12.177 12.177-12.177h77.038c6.709 0 12.146 5.469 12.146 12.177V479.77zM379.013 315.17c0 11.001-8.998 19.967-20.094 19.967h-9.856c-2.639 0-4.769 2.162-4.769 4.769 0 2.639 2.13 4.769 4.769 4.769 11.064 0 20.094 9.03 20.094 20.094v1.971c0 11.096-9.03 20.094-20.094 20.094h-14.785c-2.639 0-4.769 2.13-4.769 4.769 0 2.639 2.13 4.769 4.769 4.769 20.539 0 19.935 21.748 20.062 22.065 0 11.033-8.998 19.999-20.062 19.999h-19.045c-2.607 0-4.737 2.098-4.769 4.706-.032 2.607 2.035 4.769 4.642 4.833 26.516.572 25.944 42.159-.382 42.159-138.815-1.303-141.231 3.084-159.417-4.197 1.653-5.628.572 1.462.89-164.346 0-1.336-.127-2.639-.35-3.879l30.3-62.572c4.006-7.472 5.596-15.961 4.578-24.609l-4.928-41.11c-.127-1.749.604-3.179 1.908-3.656 32.844-12.781 67.881 11.033 59.456 69.725l-5.119 32.081c-.223 1.399.191 2.798 1.081 3.847.922 1.049 2.257 1.685 3.625 1.685h112.171c11.096 0 20.094 8.998 20.094 20.094V315.17z" fill="#f4f4f5" class="color000000 svgShape"></path>
      <circle cx="111.24" cy="456.496" r="22.797" transform="rotate(-45.001 111.235 456.5)" fill="#f4f4f5" class="color000000 svgShape"></circle>
    </g>
  </g>
</svg>
