<svg xmlns="http://www.w3.org/2000/svg" enable-background="new 0 0 512 512" viewBox="0 0 512 512" id="Mechanic">
  <path d="M411.348 366.573l-29.168 29.168c-3.908 3.785-7.206 2.069-13.446 2.069-17.118 0-32.943 7.861-43.442 21.617-11.533 15.101-14.222 35.632-6.93 53.629 3.598 8.485 13.808 12.258 22.134 7.447-3.066 5.22-2.595 11.648.259 15.928h-114.55v-86.521c79.022-47.626 51.767-31.2 57.664-34.753l37.908 21.152c4.12 2.289 9.004-1.777 7.395-6.258l-24.048-68.11c-.259-.724-.673-1.345-1.189-1.913l-9.826-10.033h5.689c45.768 0 86.521 21.72 112.534 55.388C412.073 365.799 411.711 366.212 411.348 366.573zM442.068 452.267v38.994c0 2.845-2.327 5.172-5.172 5.172h-36.201c17.607-13.206 24.734-33.365 22.083-51.044-.259-2.172.724-4.706 2.483-6.515l14.118-14.119C441.137 433.65 442.068 442.854 442.068 452.267zM156.803 374.073l-39.148 21.824c-4.111 2.283-9.003-1.729-7.395-6.206l24.772-70.23c.259-.724.672-1.396 1.189-1.913l7.418-7.551h-1.368C63.817 309.997 0 373.814 0 452.267v38.994c0 2.845 2.327 5.172 5.172 5.172h210.69v-86.791C134.928 360.898 162.841 377.71 156.803 374.073zM187.139 260.394c-2.071-1.97-2.146-5.242-.177-7.308 1.975-2.076 5.247-2.146 7.308-.177 14.96 14.252 38.393 14.252 53.352 0 2.066-1.97 5.333-1.899 7.308.177 1.97 2.066 1.894 5.338-.177 7.308C235.801 278.458 206.1 278.464 187.139 260.394z" fill="#f4f4f5" class="color000000 svgShape"></path>
  <path d="M144.92 324.022C144.15 324.57 144.036 324.651 144.92 324.022L144.92 324.022zM249.012 186.961c-1.101 2.642.146 5.667 2.783 6.763 2.631 1.101 5.672-.141 6.763-2.783 1.688-4.044 7.444-4.044 9.126-.005 1.113 2.69 4.192 3.87 6.758 2.788 2.636-1.096 3.889-4.121 2.788-6.758C272.058 174.533 254.25 174.378 249.012 186.961zM164.893 186.961c-1.101 2.642.146 5.667 2.783 6.763 2.631 1.101 5.672-.141 6.763-2.783 1.686-4.039 7.442-4.048 9.126-.005 1.113 2.69 4.192 3.87 6.758 2.788 2.636-1.096 3.889-4.121 2.788-6.758C187.939 174.533 170.131 174.378 164.893 186.961zM336.826 128.37v-26.995c0-33.099-22.342-62.266-54.25-70.954l-47.941-13.032c-8.843-2.43-18.204-2.43-27.099 0l-47.991 13.032c-31.96 8.688-54.25 37.857-54.25 70.954v27.047c35.735-18.617 75.402-28.34 115.74-28.34S301.09 109.805 336.826 128.37z" fill="#f4f4f5" class="color000000 svgShape"></path>
  <path d="M351.358 155.211c-.31-4.292-2.689-8.223-6.412-10.446-37.442-22.445-80.314-34.339-123.911-34.339-43.545 0-86.365 11.895-123.807 34.339-3.723 2.223-6.102 6.154-6.413 10.446-.491 8.054 5.486 12.337 12.772 15.728-15.503 14.228-7.978 39.61 12.413 43.383l1.293 9.981c4.034 31.547 22.031 58.335 47.217 74.575v11.181c-.422.302-16.239 11.576-19.589 13.963l-19.807 56.267 29.84-16.652c1.567-.941 3.533-.87 5.172.052 5.918 3.573-21.116-12.749 56.266 33.971v-1.764c-.49-.715-25.481-37.163-23.891-34.845-8.487-12.362-14.527-26.414-17.646-40.903v-15.374c14.015 6.93 29.737 10.809 46.182 10.809 16.187 0 32.012-3.723 46.234-10.757v15.207c-2.846 15.034-8.905 29.657-17.661 42.353-.355.517-25.22 36.695-23.636 34.389v1.058c75.197-45.317 49.262-29.686 54.872-33.068 1.603-.983 3.569-1.034 5.172-.103l28.598 15.928-19.083-54.146c-.455-.418-15.833-14.532-17.92-16.446v-11.015c25.129-15.963 43.214-43.275 47.268-74.678l1.241-9.981c11.74-2.172 20.635-12.463 20.635-24.823 0-7.349-3.213-13.93-8.247-18.561C345.849 167.637 351.958 163.207 351.358 155.211zM321.518 204.392c-2.586 0-4.758 1.965-5.12 4.551l-1.81 14.066c-6.039 46.617-45.597 82.229-93.554 82.229-47.616 0-87.536-35.742-93.45-82.229l-1.81-14.066c-.362-2.586-2.534-4.551-5.172-4.551-8.223 0-14.946-6.671-14.946-14.894 0-8.378 6.568-14.946 14.946-14.946.018 0 .031-.009.048-.009 5.161-.151 10.344-1.298 15.259-3.61 54.095-25.599 116.205-25.599 170.301 0 4.493 2.106 9.342 3.171 14.219 3.402.363.079.704.217 1.089.217 8.223 0 14.895 6.724 14.895 14.946S329.741 204.392 321.518 204.392zM499.059 384.364c-9.723 9.723-23.065 14.325-36.822 12.567-5.327-.62-11.016 1.396-15.101 5.482l-29.168 29.168c-4.085 4.086-6.102 9.723-5.431 15.101 1.742 12.551-2.328 26.595-12.619 36.822-12.861 12.861-31.907 16.287-47.941 9.567-3.372-1.305-4.34-5.797-1.706-8.43l13.549-13.498c3.743-3.743 3.849-10.063 0-13.912-3.723-3.723-10.188-3.723-13.912 0l-13.549 13.549c-2.517 2.516-6.973 1.766-8.43-1.707-5.895-14.532-3.776-31.133 5.585-43.39 9.671-12.67 24.823-19.083 40.597-17.221 5.585.673 11.274-1.344 15.359-5.431l29.168-29.168c4.034-4.034 6.102-9.774 5.431-15.308-1.913-15.774 4.499-30.926 17.17-40.597 12.256-9.36 28.858-11.481 43.39-5.585 3.292 1.274 4.388 5.749 1.707 8.43l-13.549 13.549c-3.799 3.798-3.805 10.056 0 13.86 3.723 3.723 10.187 3.723 13.912 0l13.549-13.498c2.444-2.55 6.902-1.87 8.43 1.655C515.453 352.921 511.678 371.745 499.059 384.364z" fill="#f4f4f5" class="color000000 svgShape"></path>
</svg>
